<svg xmlns="http://www.w3.org/2000/svg" xmlns:xlink="http://www.w3.org/1999/xlink" width="100" zoomAndPan="magnify" viewBox="0 0 75 74.999997" height="100" preserveAspectRatio="xMidYMid meet" version="1.0"><defs><clipPath id="ddb4f5edfc"><path d="M 1.121094 1.121094 L 73.871094 1.121094 L 73.871094 73.871094 L 1.121094 73.871094 Z M 1.121094 1.121094 " clip-rule="nonzero"/></clipPath><clipPath id="8cdf323ab6"><path d="M 73.871094 37.496094 C 73.871094 38.6875 73.8125 39.875 73.695312 41.058594 C 73.578125 42.246094 73.402344 43.421875 73.171875 44.589844 C 72.9375 45.757812 72.648438 46.914062 72.304688 48.054688 C 71.957031 49.195312 71.558594 50.3125 71.101562 51.414062 C 70.644531 52.515625 70.136719 53.589844 69.574219 54.640625 C 69.011719 55.691406 68.402344 56.714844 67.738281 57.703125 C 67.078125 58.695312 66.367188 59.648438 65.613281 60.570312 C 64.855469 61.492188 64.058594 62.375 63.214844 63.214844 C 62.375 64.058594 61.492188 64.855469 60.570312 65.613281 C 59.648438 66.367188 58.695312 67.078125 57.703125 67.738281 C 56.714844 68.402344 55.691406 69.011719 54.640625 69.574219 C 53.589844 70.136719 52.515625 70.644531 51.414062 71.101562 C 50.3125 71.558594 49.195312 71.957031 48.054688 72.304688 C 46.914062 72.648438 45.757812 72.9375 44.589844 73.171875 C 43.421875 73.402344 42.246094 73.578125 41.058594 73.695312 C 39.875 73.8125 38.6875 73.871094 37.496094 73.871094 C 36.304688 73.871094 35.113281 73.8125 33.929688 73.695312 C 32.742188 73.578125 31.566406 73.402344 30.398438 73.171875 C 29.230469 72.9375 28.074219 72.648438 26.9375 72.304688 C 25.796875 71.957031 24.675781 71.558594 23.574219 71.101562 C 22.472656 70.644531 21.398438 70.136719 20.347656 69.574219 C 19.296875 69.011719 18.277344 68.402344 17.285156 67.738281 C 16.296875 67.078125 15.339844 66.367188 14.417969 65.613281 C 13.496094 64.855469 12.617188 64.058594 11.773438 63.214844 C 10.929688 62.375 10.132812 61.492188 9.375 60.570312 C 8.621094 59.648438 7.910156 58.695312 7.25 57.703125 C 6.589844 56.714844 5.976562 55.691406 5.414062 54.640625 C 4.851562 53.589844 4.34375 52.515625 3.886719 51.414062 C 3.433594 50.3125 3.03125 49.195312 2.6875 48.054688 C 2.339844 46.914062 2.050781 45.757812 1.820312 44.589844 C 1.585938 43.421875 1.410156 42.246094 1.292969 41.058594 C 1.179688 39.875 1.121094 38.6875 1.121094 37.496094 C 1.121094 36.304688 1.179688 35.113281 1.292969 33.929688 C 1.410156 32.742188 1.585938 31.566406 1.820312 30.398438 C 2.050781 29.230469 2.339844 28.074219 2.6875 26.9375 C 3.03125 25.796875 3.433594 24.675781 3.886719 23.574219 C 4.34375 22.472656 4.851562 21.398438 5.414062 20.347656 C 5.976562 19.296875 6.589844 18.277344 7.25 17.285156 C 7.910156 16.296875 8.621094 15.339844 9.375 14.417969 C 10.132812 13.496094 10.929688 12.617188 11.773438 11.773438 C 12.617188 10.929688 13.496094 10.132812 14.417969 9.375 C 15.339844 8.621094 16.296875 7.910156 17.285156 7.25 C 18.277344 6.589844 19.296875 5.976562 20.347656 5.414062 C 21.398438 4.851562 22.472656 4.34375 23.574219 3.886719 C 24.675781 3.433594 25.796875 3.03125 26.9375 2.6875 C 28.074219 2.339844 29.230469 2.050781 30.398438 1.820312 C 31.566406 1.585938 32.742188 1.410156 33.929688 1.292969 C 35.113281 1.179688 36.304688 1.121094 37.496094 1.121094 C 38.6875 1.121094 39.875 1.179688 41.058594 1.292969 C 42.246094 1.410156 43.421875 1.585938 44.589844 1.820312 C 45.757812 2.050781 46.914062 2.339844 48.054688 2.6875 C 49.195312 3.03125 50.3125 3.433594 51.414062 3.886719 C 52.515625 4.34375 53.589844 4.851562 54.640625 5.414062 C 55.691406 5.976562 56.714844 6.589844 57.703125 7.25 C 58.695312 7.910156 59.648438 8.621094 60.570312 9.375 C 61.492188 10.132812 62.375 10.929688 63.214844 11.773438 C 64.058594 12.617188 64.855469 13.496094 65.613281 14.417969 C 66.367188 15.339844 67.078125 16.296875 67.738281 17.285156 C 68.402344 18.277344 69.011719 19.296875 69.574219 20.347656 C 70.136719 21.398438 70.644531 22.472656 71.101562 23.574219 C 71.558594 24.675781 71.957031 25.796875 72.304688 26.9375 C 72.648438 28.074219 72.9375 29.230469 73.171875 30.398438 C 73.402344 31.566406 73.578125 32.742188 73.695312 33.929688 C 73.8125 35.113281 73.871094 36.304688 73.871094 37.496094 Z M 73.871094 37.496094 " clip-rule="nonzero"/></clipPath><linearGradient x1="245.382098" gradientTransform="matrix(0.252013, 0.1455, 0.1455, -0.252013, -59.141918, 65.42152)" y1="425.284518" x2="233.899229" gradientUnits="userSpaceOnUse" y2="73.0203" id="67317466dc"><stop stop-opacity="1" stop-color="rgb(32.199097%, 44.299316%, 100%)" offset="0"/><stop stop-opacity="1" stop-color="rgb(32.199097%, 44.299316%, 100%)" offset="0.0315683"/><stop stop-opacity="1" stop-color="rgb(32.199097%, 44.299316%, 100%)" offset="0.125"/><stop stop-opacity="1" stop-color="rgb(32.199097%, 44.299316%, 100%)" offset="0.140625"/><stop stop-opacity="1" stop-color="rgb(32.171631%, 44.369507%, 100%)" offset="0.148438"/><stop stop-opacity="1" stop-color="rgb(32.078552%, 44.618225%, 100%)" offset="0.15625"/><stop stop-opacity="1" stop-color="rgb(31.944275%, 44.973755%, 100%)" offset="0.164062"/><stop stop-opacity="1" stop-color="rgb(31.811523%, 45.330811%, 100%)" offset="0.171875"/><stop stop-opacity="1" stop-color="rgb(31.677246%, 45.687866%, 100%)" offset="0.179688"/><stop stop-opacity="1" stop-color="rgb(31.542969%, 46.043396%, 100%)" offset="0.1875"/><stop stop-opacity="1" stop-color="rgb(31.408691%, 46.400452%, 100%)" offset="0.195312"/><stop stop-opacity="1" stop-color="rgb(31.274414%, 46.757507%, 100%)" offset="0.203125"/><stop stop-opacity="1" stop-color="rgb(31.140137%, 47.113037%, 100%)" offset="0.210938"/><stop stop-opacity="1" stop-color="rgb(31.005859%, 47.470093%, 100%)" offset="0.21875"/><stop stop-opacity="1" stop-color="rgb(30.871582%, 47.827148%, 100%)" offset="0.226563"/><stop stop-opacity="1" stop-color="rgb(30.737305%, 48.182678%, 100%)" offset="0.234375"/><stop stop-opacity="1" stop-color="rgb(30.603027%, 48.539734%, 100%)" offset="0.242188"/><stop stop-opacity="1" stop-color="rgb(30.46875%, 48.89679%, 100%)" offset="0.25"/><stop stop-opacity="1" stop-color="rgb(30.334473%, 49.252319%, 100%)" offset="0.257813"/><stop stop-opacity="1" stop-color="rgb(30.200195%, 49.609375%, 100%)" offset="0.265625"/><stop stop-opacity="1" stop-color="rgb(30.065918%, 49.966431%, 100%)" offset="0.273438"/><stop stop-opacity="1" stop-color="rgb(29.931641%, 50.32196%, 100%)" offset="0.28125"/><stop stop-opacity="1" stop-color="rgb(29.797363%, 50.679016%, 100%)" offset="0.289062"/><stop stop-opacity="1" stop-color="rgb(29.663086%, 51.036072%, 100%)" offset="0.296875"/><stop stop-opacity="1" stop-color="rgb(29.528809%, 51.391602%, 100%)" offset="0.304688"/><stop stop-opacity="1" stop-color="rgb(29.396057%, 51.748657%, 100%)" offset="0.3125"/><stop stop-opacity="1" stop-color="rgb(29.26178%, 52.104187%, 100%)" offset="0.320312"/><stop stop-opacity="1" stop-color="rgb(29.127502%, 52.461243%, 100%)" offset="0.328125"/><stop stop-opacity="1" stop-color="rgb(28.993225%, 52.818298%, 100%)" offset="0.335938"/><stop stop-opacity="1" stop-color="rgb(28.858948%, 53.173828%, 100%)" offset="0.34375"/><stop stop-opacity="1" stop-color="rgb(28.72467%, 53.530884%, 100%)" offset="0.351563"/><stop stop-opacity="1" stop-color="rgb(28.590393%, 53.887939%, 100%)" offset="0.359375"/><stop stop-opacity="1" stop-color="rgb(28.456116%, 54.243469%, 100%)" offset="0.367188"/><stop stop-opacity="1" stop-color="rgb(28.321838%, 54.600525%, 100%)" offset="0.375"/><stop stop-opacity="1" stop-color="rgb(28.187561%, 54.957581%, 100%)" offset="0.382813"/><stop stop-opacity="1" stop-color="rgb(28.053284%, 55.31311%, 100%)" offset="0.390625"/><stop stop-opacity="1" stop-color="rgb(27.919006%, 55.670166%, 100%)" offset="0.398438"/><stop stop-opacity="1" stop-color="rgb(27.784729%, 56.027222%, 100%)" offset="0.40625"/><stop stop-opacity="1" stop-color="rgb(27.650452%, 56.382751%, 100%)" offset="0.414062"/><stop stop-opacity="1" stop-color="rgb(27.516174%, 56.739807%, 100%)" offset="0.421875"/><stop stop-opacity="1" stop-color="rgb(27.381897%, 57.096863%, 100%)" offset="0.429688"/><stop stop-opacity="1" stop-color="rgb(27.24762%, 57.452393%, 100%)" offset="0.4375"/><stop stop-opacity="1" stop-color="rgb(27.114868%, 57.809448%, 100%)" offset="0.445313"/><stop stop-opacity="1" stop-color="rgb(26.980591%, 58.166504%, 100%)" offset="0.453125"/><stop stop-opacity="1" stop-color="rgb(26.846313%, 58.522034%, 100%)" offset="0.460938"/><stop stop-opacity="1" stop-color="rgb(26.712036%, 58.879089%, 100%)" offset="0.46875"/><stop stop-opacity="1" stop-color="rgb(26.577759%, 59.234619%, 100%)" offset="0.476563"/><stop stop-opacity="1" stop-color="rgb(26.443481%, 59.591675%, 100%)" offset="0.484375"/><stop stop-opacity="1" stop-color="rgb(26.309204%, 59.94873%, 100%)" offset="0.492188"/><stop stop-opacity="1" stop-color="rgb(26.174927%, 60.30426%, 100%)" offset="0.5"/><stop stop-opacity="1" stop-color="rgb(26.040649%, 60.661316%, 100%)" offset="0.507812"/><stop stop-opacity="1" stop-color="rgb(25.906372%, 61.018372%, 100%)" offset="0.515625"/><stop stop-opacity="1" stop-color="rgb(25.772095%, 61.373901%, 100%)" offset="0.523438"/><stop stop-opacity="1" stop-color="rgb(25.637817%, 61.730957%, 100%)" offset="0.53125"/><stop stop-opacity="1" stop-color="rgb(25.50354%, 62.088013%, 100%)" offset="0.539062"/><stop stop-opacity="1" stop-color="rgb(25.369263%, 62.443542%, 100%)" offset="0.546875"/><stop stop-opacity="1" stop-color="rgb(25.234985%, 62.800598%, 100%)" offset="0.554688"/><stop stop-opacity="1" stop-color="rgb(25.100708%, 63.157654%, 100%)" offset="0.5625"/><stop stop-opacity="1" stop-color="rgb(24.966431%, 63.513184%, 100%)" offset="0.570312"/><stop stop-opacity="1" stop-color="rgb(24.832153%, 63.870239%, 100%)" offset="0.578125"/><stop stop-opacity="1" stop-color="rgb(24.699402%, 64.227295%, 100%)" offset="0.585938"/><stop stop-opacity="1" stop-color="rgb(24.565125%, 64.582825%, 100%)" offset="0.59375"/><stop stop-opacity="1" stop-color="rgb(24.430847%, 64.93988%, 100%)" offset="0.601562"/><stop stop-opacity="1" stop-color="rgb(24.29657%, 65.296936%, 100%)" offset="0.609375"/><stop stop-opacity="1" stop-color="rgb(24.162292%, 65.652466%, 100%)" offset="0.617188"/><stop stop-opacity="1" stop-color="rgb(24.028015%, 66.009521%, 100%)" offset="0.625"/><stop stop-opacity="1" stop-color="rgb(23.893738%, 66.366577%, 100%)" offset="0.632812"/><stop stop-opacity="1" stop-color="rgb(23.75946%, 66.722107%, 100%)" offset="0.640625"/><stop stop-opacity="1" stop-color="rgb(23.625183%, 67.079163%, 100%)" offset="0.648438"/><stop stop-opacity="1" stop-color="rgb(23.490906%, 67.434692%, 100%)" offset="0.65625"/><stop stop-opacity="1" stop-color="rgb(23.356628%, 67.791748%, 100%)" offset="0.664062"/><stop stop-opacity="1" stop-color="rgb(23.222351%, 68.148804%, 100%)" offset="0.671875"/><stop stop-opacity="1" stop-color="rgb(23.088074%, 68.504333%, 100%)" offset="0.679688"/><stop stop-opacity="1" stop-color="rgb(22.953796%, 68.861389%, 100%)" offset="0.6875"/><stop stop-opacity="1" stop-color="rgb(22.819519%, 69.218445%, 100%)" offset="0.695312"/><stop stop-opacity="1" stop-color="rgb(22.685242%, 69.573975%, 100%)" offset="0.703125"/><stop stop-opacity="1" stop-color="rgb(22.550964%, 69.93103%, 100%)" offset="0.710938"/><stop stop-opacity="1" stop-color="rgb(22.418213%, 70.288086%, 100%)" offset="0.71875"/><stop stop-opacity="1" stop-color="rgb(22.283936%, 70.643616%, 100%)" offset="0.726562"/><stop stop-opacity="1" stop-color="rgb(22.149658%, 71.000671%, 100%)" offset="0.734375"/><stop stop-opacity="1" stop-color="rgb(22.039795%, 71.289062%, 100%)" offset="0.75"/><stop stop-opacity="1" stop-color="rgb(21.998596%, 71.398926%, 100%)" offset="0.968432"/><stop stop-opacity="1" stop-color="rgb(21.998596%, 71.398926%, 100%)" offset="1"/></linearGradient><clipPath id="7da666e920"><path d="M 8.585938 8.585938 L 66.335938 8.585938 L 66.335938 66.335938 L 8.585938 66.335938 Z M 8.585938 8.585938 " clip-rule="nonzero"/></clipPath></defs><g clip-path="url(#ddb4f5edfc)"><g clip-path="url(#8cdf323ab6)"><path fill="url(#67317466dc)" d="M -30.382812 55.683594 L 19.308594 -30.382812 L 105.371094 19.308594 L 55.683594 105.371094 Z M -30.382812 55.683594 " fill-rule="nonzero"/></g></g><g clip-path="url(#7da666e920)"><path fill="#ffffff" d="M 37.460938 8.585938 C 36.515625 8.585938 35.570312 8.628906 34.628906 8.722656 C 33.6875 8.816406 32.753906 8.953125 31.828125 9.140625 C 30.898438 9.324219 29.984375 9.554688 29.078125 9.828125 C 28.171875 10.101562 27.285156 10.421875 26.410156 10.78125 C 25.535156 11.144531 24.683594 11.546875 23.847656 11.992188 C 23.015625 12.441406 22.203125 12.925781 21.417969 13.449219 C 20.632812 13.976562 19.871094 14.539062 19.140625 15.140625 C 18.410156 15.738281 17.710938 16.375 17.042969 17.042969 C 16.375 17.710938 15.738281 18.410156 15.140625 19.140625 C 14.539062 19.871094 13.976562 20.632812 13.449219 21.417969 C 12.925781 22.203125 12.441406 23.015625 11.992188 23.847656 C 11.546875 24.683594 11.144531 25.535156 10.78125 26.410156 C 10.421875 27.285156 10.101562 28.171875 9.828125 29.078125 C 9.554688 29.984375 9.324219 30.898438 9.140625 31.828125 C 8.953125 32.753906 8.816406 33.6875 8.722656 34.628906 C 8.628906 35.570312 8.585938 36.515625 8.585938 37.460938 C 8.585938 38.40625 8.628906 39.347656 8.722656 40.289062 C 8.816406 41.230469 8.953125 42.164062 9.140625 43.09375 C 9.324219 44.019531 9.554688 44.9375 9.828125 45.839844 C 10.101562 46.746094 10.421875 47.636719 10.78125 48.507812 C 11.144531 49.382812 11.546875 50.238281 11.992188 51.070312 C 12.441406 51.90625 12.925781 52.714844 13.449219 53.5 C 13.976562 54.289062 14.539062 55.046875 15.140625 55.777344 C 15.738281 56.507812 16.375 57.207031 17.042969 57.878906 C 17.710938 58.546875 18.410156 59.179688 19.140625 59.78125 C 19.871094 60.378906 20.632812 60.941406 21.417969 61.46875 C 22.203125 61.992188 23.015625 62.480469 23.847656 62.925781 C 24.683594 63.371094 25.535156 63.773438 26.410156 64.136719 C 27.285156 64.5 28.171875 64.816406 29.078125 65.089844 C 29.984375 65.367188 30.898438 65.59375 31.828125 65.78125 C 32.753906 65.964844 33.6875 66.101562 34.628906 66.195312 C 35.570312 66.289062 36.515625 66.335938 37.460938 66.335938 C 38.40625 66.335938 39.347656 66.289062 40.289062 66.195312 C 41.230469 66.101562 42.164062 65.964844 43.09375 65.78125 C 44.019531 65.59375 44.9375 65.367188 45.839844 65.089844 C 46.746094 64.816406 47.636719 64.5 48.507812 64.136719 C 49.382812 63.773438 50.238281 63.371094 51.070312 62.925781 C 51.90625 62.480469 52.714844 61.992188 53.5 61.46875 C 54.289062 60.941406 55.046875 60.378906 55.777344 59.78125 C 56.507812 59.179688 57.207031 58.546875 57.878906 57.878906 C 58.546875 57.207031 59.179688 56.507812 59.78125 55.777344 C 60.378906 55.046875 60.941406 54.289062 61.46875 53.5 C 61.992188 52.714844 62.480469 51.90625 62.925781 51.070312 C 63.371094 50.238281 63.773438 49.382812 64.136719 48.507812 C 64.5 47.636719 64.816406 46.746094 65.089844 45.839844 C 65.367188 44.9375 65.59375 44.019531 65.78125 43.09375 C 65.964844 42.164062 66.101562 41.230469 66.195312 40.289062 C 66.289062 39.347656 66.335938 38.40625 66.335938 37.460938 C 66.335938 36.515625 66.289062 35.570312 66.195312 34.628906 C 66.101562 33.6875 65.964844 32.753906 65.78125 31.828125 C 65.59375 30.898438 65.367188 29.984375 65.089844 29.078125 C 64.816406 28.171875 64.5 27.285156 64.136719 26.410156 C 63.773438 25.535156 63.371094 24.683594 62.925781 23.847656 C 62.480469 23.015625 61.992188 22.203125 61.46875 21.417969 C 60.941406 20.632812 60.378906 19.871094 59.78125 19.140625 C 59.179688 18.410156 58.546875 17.710938 57.878906 17.042969 C 57.207031 16.375 56.507812 15.738281 55.777344 15.140625 C 55.046875 14.539062 54.289062 13.976562 53.5 13.449219 C 52.714844 12.925781 51.90625 12.441406 51.070312 11.992188 C 50.238281 11.546875 49.382812 11.144531 48.507812 10.78125 C 47.636719 10.421875 46.746094 10.101562 45.839844 9.828125 C 44.9375 9.554688 44.019531 9.324219 43.09375 9.140625 C 42.164062 8.953125 41.230469 8.816406 40.289062 8.722656 C 39.347656 8.628906 38.40625 8.585938 37.460938 8.585938 Z M 41.585938 47.535156 C 41.328125 47.570312 41.070312 47.554688 40.820312 47.480469 C 40.570312 47.410156 40.347656 47.285156 40.148438 47.117188 C 39.953125 46.945312 39.796875 46.742188 39.6875 46.507812 C 39.578125 46.269531 39.523438 46.023438 39.523438 45.761719 L 39.523438 41.015625 C 39.519531 40.605469 39.648438 40.234375 39.90625 39.910156 C 40.160156 39.585938 40.492188 39.378906 40.894531 39.285156 C 41.273438 39.199219 41.640625 39.078125 41.996094 38.921875 C 42.351562 38.769531 42.6875 38.582031 43.007812 38.363281 C 43.328125 38.144531 43.625 37.898438 43.902344 37.621094 C 44.175781 37.347656 44.421875 37.050781 44.640625 36.730469 C 44.855469 36.40625 45.042969 36.070312 45.199219 35.714844 C 45.351562 35.355469 45.472656 34.988281 45.558594 34.613281 C 45.644531 34.234375 45.691406 33.851562 45.707031 33.460938 C 45.71875 33.074219 45.695312 32.6875 45.636719 32.304688 C 45.578125 31.921875 45.480469 31.546875 45.351562 31.179688 C 45.222656 30.816406 45.058594 30.464844 44.863281 30.128906 C 44.667969 29.796875 44.441406 29.480469 44.1875 29.1875 C 43.933594 28.894531 43.652344 28.628906 43.347656 28.390625 C 43.042969 28.148438 42.71875 27.941406 42.375 27.761719 C 42.03125 27.582031 41.671875 27.4375 41.300781 27.324219 C 40.929688 27.214844 40.550781 27.136719 40.164062 27.097656 C 39.777344 27.058594 39.390625 27.054688 39.003906 27.085938 C 38.617188 27.117188 38.238281 27.1875 37.863281 27.289062 C 37.492188 27.394531 37.128906 27.53125 36.78125 27.703125 C 36.433594 27.875 36.105469 28.078125 35.796875 28.3125 C 35.484375 28.546875 35.199219 28.804688 34.9375 29.09375 C 34.679688 29.378906 34.445312 29.691406 34.246094 30.019531 C 34.042969 30.351562 33.871094 30.699219 33.734375 31.0625 C 33.597656 31.425781 33.496094 31.796875 33.425781 32.179688 C 33.359375 32.5625 33.328125 32.945312 33.335938 33.335938 L 33.335938 52.929688 C 33.335938 53.339844 33.257812 53.734375 33.097656 54.113281 C 32.941406 54.492188 32.71875 54.824219 32.429688 55.117188 C 32.136719 55.40625 31.804688 55.628906 31.425781 55.785156 C 31.046875 55.945312 30.652344 56.023438 30.242188 56.023438 L 28.179688 56.023438 C 27.769531 56.023438 27.375 55.945312 26.996094 55.785156 C 26.617188 55.628906 26.28125 55.40625 25.992188 55.117188 C 25.699219 54.824219 25.476562 54.492188 25.320312 54.113281 C 25.164062 53.734375 25.085938 53.339844 25.085938 52.929688 L 25.085938 33.707031 C 25.074219 32.777344 25.152344 31.851562 25.316406 30.9375 C 25.480469 30.023438 25.730469 29.128906 26.066406 28.261719 C 26.398438 27.394531 26.8125 26.566406 27.304688 25.777344 C 27.796875 24.988281 28.359375 24.25 28.992188 23.570312 C 29.625 22.886719 30.316406 22.269531 31.0625 21.71875 C 31.8125 21.167969 32.609375 20.691406 33.449219 20.292969 C 34.289062 19.890625 35.15625 19.574219 36.058594 19.339844 C 36.957031 19.105469 37.871094 18.957031 38.800781 18.898438 C 39.695312 18.886719 40.585938 18.957031 41.46875 19.113281 C 42.355469 19.265625 43.214844 19.5 44.054688 19.816406 C 44.894531 20.128906 45.699219 20.519531 46.464844 20.984375 C 47.234375 21.449219 47.949219 21.980469 48.617188 22.582031 C 49.285156 23.179688 49.894531 23.832031 50.4375 24.546875 C 50.984375 25.257812 51.460938 26.011719 51.867188 26.8125 C 52.269531 27.613281 52.597656 28.445312 52.847656 29.304688 C 53.097656 30.167969 53.269531 31.042969 53.355469 31.9375 C 53.441406 32.828125 53.445312 33.722656 53.363281 34.617188 C 53.285156 35.507812 53.125 36.386719 52.878906 37.25 C 52.636719 38.113281 52.316406 38.945312 51.917969 39.75 C 51.519531 40.554688 51.050781 41.3125 50.507812 42.03125 C 49.96875 42.746094 49.367188 43.40625 48.703125 44.007812 C 48.042969 44.613281 47.328125 45.148438 46.566406 45.621094 C 45.800781 46.09375 45 46.488281 44.164062 46.808594 C 43.328125 47.132812 42.464844 47.375 41.585938 47.535156 Z M 41.585938 47.535156 " fill-opacity="1" fill-rule="nonzero"/></g></svg>