<svg xmlns="http://www.w3.org/2000/svg" xmlns:xlink="http://www.w3.org/1999/xlink" width="200" zoomAndPan="magnify" viewBox="0 0 150 149.999998" height="200" preserveAspectRatio="xMidYMid meet" version="1.0"><defs><clipPath id="02a5e1c36e"><path d="M 2.238281 2.238281 L 147.738281 2.238281 L 147.738281 147.738281 L 2.238281 147.738281 Z M 2.238281 2.238281 " clip-rule="nonzero"/></clipPath><clipPath id="fa65ce3047"><path d="M 147.738281 74.988281 C 147.738281 76.179688 147.710938 77.371094 147.652344 78.558594 C 147.59375 79.75 147.503906 80.933594 147.390625 82.121094 C 147.273438 83.304688 147.125 84.488281 146.953125 85.664062 C 146.777344 86.839844 146.574219 88.015625 146.339844 89.183594 C 146.109375 90.351562 145.847656 91.511719 145.558594 92.667969 C 145.269531 93.820312 144.953125 94.96875 144.605469 96.109375 C 144.261719 97.246094 143.886719 98.378906 143.488281 99.5 C 143.085938 100.621094 142.65625 101.730469 142.203125 102.828125 C 141.746094 103.929688 141.261719 105.019531 140.753906 106.09375 C 140.246094 107.171875 139.710938 108.234375 139.148438 109.285156 C 138.589844 110.332031 138 111.371094 137.390625 112.390625 C 136.777344 113.410156 136.140625 114.417969 135.480469 115.40625 C 134.816406 116.398438 134.132812 117.371094 133.421875 118.328125 C 132.714844 119.28125 131.980469 120.222656 131.226562 121.140625 C 130.46875 122.0625 129.691406 122.964844 128.894531 123.84375 C 128.09375 124.726562 127.273438 125.589844 126.429688 126.429688 C 125.589844 127.273438 124.726562 128.09375 123.84375 128.894531 C 122.964844 129.691406 122.0625 130.46875 121.140625 131.226562 C 120.222656 131.980469 119.28125 132.714844 118.328125 133.421875 C 117.371094 134.132812 116.398438 134.816406 115.40625 135.480469 C 114.417969 136.140625 113.410156 136.777344 112.390625 137.390625 C 111.371094 138 110.332031 138.589844 109.285156 139.148438 C 108.234375 139.710938 107.171875 140.246094 106.09375 140.753906 C 105.019531 141.265625 103.929688 141.746094 102.828125 142.203125 C 101.730469 142.65625 100.621094 143.085938 99.5 143.488281 C 98.378906 143.886719 97.246094 144.261719 96.109375 144.605469 C 94.96875 144.953125 93.820312 145.269531 92.667969 145.558594 C 91.511719 145.847656 90.351562 146.109375 89.183594 146.339844 C 88.015625 146.574219 86.839844 146.777344 85.664062 146.953125 C 84.488281 147.125 83.304688 147.273438 82.121094 147.390625 C 80.933594 147.503906 79.75 147.59375 78.558594 147.652344 C 77.371094 147.710938 76.179688 147.738281 74.988281 147.738281 C 73.796875 147.738281 72.609375 147.710938 71.417969 147.652344 C 70.230469 147.59375 69.042969 147.503906 67.859375 147.390625 C 66.671875 147.273438 65.492188 147.125 64.316406 146.953125 C 63.136719 146.777344 61.964844 146.574219 60.796875 146.339844 C 59.628906 146.109375 58.46875 145.847656 57.3125 145.558594 C 56.15625 145.269531 55.011719 144.953125 53.871094 144.605469 C 52.730469 144.261719 51.601562 143.886719 50.480469 143.488281 C 49.359375 143.085938 48.25 142.65625 47.148438 142.203125 C 46.050781 141.746094 44.960938 141.265625 43.886719 140.753906 C 42.808594 140.246094 41.746094 139.710938 40.695312 139.148438 C 39.644531 138.589844 38.609375 138 37.589844 137.390625 C 36.566406 136.777344 35.5625 136.140625 34.570312 135.480469 C 33.582031 134.816406 32.609375 134.132812 31.652344 133.421875 C 30.695312 132.714844 29.757812 131.980469 28.835938 131.226562 C 27.917969 130.46875 27.015625 129.691406 26.132812 128.894531 C 25.25 128.09375 24.390625 127.273438 23.546875 126.429688 C 22.707031 125.589844 21.886719 124.726562 21.085938 123.84375 C 20.285156 122.964844 19.507812 122.0625 18.753906 121.140625 C 17.996094 120.222656 17.265625 119.28125 16.554688 118.328125 C 15.847656 117.371094 15.160156 116.398438 14.5 115.40625 C 13.839844 114.417969 13.203125 113.410156 12.589844 112.390625 C 11.976562 111.371094 11.390625 110.332031 10.828125 109.285156 C 10.269531 108.234375 9.734375 107.171875 9.222656 106.09375 C 8.714844 105.019531 8.234375 103.929688 7.777344 102.828125 C 7.320312 101.730469 6.894531 100.621094 6.492188 99.5 C 6.089844 98.378906 5.71875 97.246094 5.371094 96.109375 C 5.027344 94.96875 4.707031 93.820312 4.417969 92.667969 C 4.128906 91.511719 3.871094 90.351562 3.636719 89.183594 C 3.40625 88.015625 3.203125 86.839844 3.027344 85.664062 C 2.851562 84.488281 2.707031 83.304688 2.589844 82.121094 C 2.472656 80.933594 2.386719 79.75 2.328125 78.558594 C 2.269531 77.371094 2.238281 76.179688 2.238281 74.988281 C 2.238281 73.796875 2.269531 72.609375 2.328125 71.417969 C 2.386719 70.230469 2.472656 69.042969 2.589844 67.859375 C 2.707031 66.671875 2.851562 65.492188 3.027344 64.316406 C 3.203125 63.136719 3.40625 61.964844 3.636719 60.796875 C 3.871094 59.628906 4.128906 58.46875 4.417969 57.3125 C 4.707031 56.15625 5.027344 55.011719 5.371094 53.871094 C 5.71875 52.730469 6.089844 51.601562 6.492188 50.480469 C 6.894531 49.359375 7.320312 48.25 7.777344 47.148438 C 8.234375 46.050781 8.714844 44.960938 9.222656 43.886719 C 9.734375 42.808594 10.269531 41.746094 10.828125 40.695312 C 11.390625 39.644531 11.976562 38.609375 12.589844 37.589844 C 13.203125 36.566406 13.839844 35.5625 14.5 34.570312 C 15.160156 33.582031 15.847656 32.609375 16.554688 31.652344 C 17.265625 30.695312 17.996094 29.757812 18.753906 28.835938 C 19.507812 27.917969 20.285156 27.015625 21.085938 26.132812 C 21.886719 25.25 22.707031 24.390625 23.546875 23.546875 C 24.390625 22.707031 25.25 21.886719 26.132812 21.085938 C 27.015625 20.285156 27.917969 19.507812 28.835938 18.753906 C 29.757812 17.996094 30.695312 17.265625 31.652344 16.554688 C 32.609375 15.847656 33.582031 15.160156 34.570312 14.5 C 35.5625 13.839844 36.566406 13.203125 37.589844 12.589844 C 38.609375 11.976562 39.644531 11.390625 40.695312 10.828125 C 41.746094 10.269531 42.808594 9.734375 43.886719 9.222656 C 44.960938 8.714844 46.050781 8.234375 47.148438 7.777344 C 48.25 7.320312 49.359375 6.894531 50.480469 6.492188 C 51.601562 6.089844 52.730469 5.71875 53.871094 5.371094 C 55.011719 5.027344 56.15625 4.707031 57.3125 4.417969 C 58.46875 4.128906 59.628906 3.871094 60.796875 3.636719 C 61.964844 3.40625 63.136719 3.203125 64.316406 3.027344 C 65.492188 2.851562 66.671875 2.707031 67.859375 2.589844 C 69.042969 2.472656 70.230469 2.386719 71.417969 2.328125 C 72.609375 2.269531 73.796875 2.238281 74.988281 2.238281 C 76.179688 2.238281 77.371094 2.269531 78.558594 2.328125 C 79.75 2.386719 80.933594 2.472656 82.121094 2.589844 C 83.304688 2.707031 84.488281 2.851562 85.664062 3.027344 C 86.839844 3.203125 88.015625 3.40625 89.183594 3.636719 C 90.351562 3.871094 91.511719 4.128906 92.667969 4.417969 C 93.820312 4.707031 94.96875 5.027344 96.109375 5.371094 C 97.246094 5.71875 98.378906 6.089844 99.5 6.492188 C 100.621094 6.894531 101.730469 7.320312 102.828125 7.777344 C 103.929688 8.234375 105.019531 8.714844 106.09375 9.222656 C 107.171875 9.734375 108.234375 10.269531 109.285156 10.828125 C 110.332031 11.390625 111.371094 11.976562 112.390625 12.589844 C 113.410156 13.203125 114.417969 13.839844 115.40625 14.5 C 116.398438 15.160156 117.371094 15.847656 118.328125 16.554688 C 119.28125 17.265625 120.222656 17.996094 121.140625 18.753906 C 122.0625 19.507812 122.964844 20.285156 123.84375 21.085938 C 124.726562 21.886719 125.589844 22.707031 126.429688 23.546875 C 127.273438 24.390625 128.09375 25.25 128.894531 26.132812 C 129.691406 27.015625 130.46875 27.917969 131.226562 28.835938 C 131.980469 29.757812 132.714844 30.695312 133.421875 31.652344 C 134.132812 32.609375 134.816406 33.582031 135.480469 34.570312 C 136.140625 35.5625 136.777344 36.566406 137.390625 37.589844 C 138 38.609375 138.589844 39.644531 139.148438 40.695312 C 139.710938 41.746094 140.246094 42.808594 140.753906 43.886719 C 141.265625 44.960938 141.746094 46.050781 142.203125 47.148438 C 142.65625 48.25 143.085938 49.359375 143.488281 50.480469 C 143.886719 51.601562 144.261719 52.730469 144.605469 53.871094 C 144.953125 55.011719 145.269531 56.15625 145.558594 57.3125 C 145.847656 58.46875 146.109375 59.628906 146.339844 60.796875 C 146.574219 61.964844 146.777344 63.136719 146.953125 64.316406 C 147.125 65.492188 147.273438 66.671875 147.390625 67.859375 C 147.503906 69.042969 147.59375 70.230469 147.652344 71.417969 C 147.710938 72.609375 147.738281 73.796875 147.738281 74.988281 Z M 147.738281 74.988281 " clip-rule="nonzero"/></clipPath><linearGradient x1="245.382098" gradientTransform="matrix(0.504027, 0.291, 0.291, -0.504027, -118.283841, 130.843048)" y1="425.284527" x2="233.899229" gradientUnits="userSpaceOnUse" y2="73.020303" id="728dfd3c4d"><stop stop-opacity="1" stop-color="rgb(32.199097%, 44.299316%, 100%)" offset="0"/><stop stop-opacity="1" stop-color="rgb(32.199097%, 44.299316%, 100%)" offset="0.0315683"/><stop stop-opacity="1" stop-color="rgb(32.199097%, 44.299316%, 100%)" offset="0.125"/><stop stop-opacity="1" stop-color="rgb(32.199097%, 44.299316%, 100%)" offset="0.140625"/><stop stop-opacity="1" stop-color="rgb(32.171631%, 44.369507%, 100%)" offset="0.148438"/><stop stop-opacity="1" stop-color="rgb(32.078552%, 44.618225%, 100%)" offset="0.15625"/><stop stop-opacity="1" stop-color="rgb(31.944275%, 44.973755%, 100%)" offset="0.164062"/><stop stop-opacity="1" stop-color="rgb(31.811523%, 45.330811%, 100%)" offset="0.171875"/><stop stop-opacity="1" stop-color="rgb(31.677246%, 45.687866%, 100%)" offset="0.179687"/><stop stop-opacity="1" stop-color="rgb(31.542969%, 46.043396%, 100%)" offset="0.1875"/><stop stop-opacity="1" stop-color="rgb(31.408691%, 46.400452%, 100%)" offset="0.195312"/><stop stop-opacity="1" stop-color="rgb(31.274414%, 46.757507%, 100%)" offset="0.203125"/><stop stop-opacity="1" stop-color="rgb(31.140137%, 47.113037%, 100%)" offset="0.210938"/><stop stop-opacity="1" stop-color="rgb(31.005859%, 47.470093%, 100%)" offset="0.21875"/><stop stop-opacity="1" stop-color="rgb(30.871582%, 47.827148%, 100%)" offset="0.226562"/><stop stop-opacity="1" stop-color="rgb(30.737305%, 48.182678%, 100%)" offset="0.234375"/><stop stop-opacity="1" stop-color="rgb(30.603027%, 48.539734%, 100%)" offset="0.242187"/><stop stop-opacity="1" stop-color="rgb(30.46875%, 48.89679%, 100%)" offset="0.25"/><stop stop-opacity="1" stop-color="rgb(30.334473%, 49.252319%, 100%)" offset="0.257812"/><stop stop-opacity="1" stop-color="rgb(30.200195%, 49.609375%, 100%)" offset="0.265625"/><stop stop-opacity="1" stop-color="rgb(30.065918%, 49.966431%, 100%)" offset="0.273438"/><stop stop-opacity="1" stop-color="rgb(29.931641%, 50.32196%, 100%)" offset="0.28125"/><stop stop-opacity="1" stop-color="rgb(29.797363%, 50.679016%, 100%)" offset="0.289062"/><stop stop-opacity="1" stop-color="rgb(29.663086%, 51.036072%, 100%)" offset="0.296875"/><stop stop-opacity="1" stop-color="rgb(29.528809%, 51.391602%, 100%)" offset="0.304688"/><stop stop-opacity="1" stop-color="rgb(29.396057%, 51.748657%, 100%)" offset="0.3125"/><stop stop-opacity="1" stop-color="rgb(29.26178%, 52.104187%, 100%)" offset="0.320312"/><stop stop-opacity="1" stop-color="rgb(29.127502%, 52.461243%, 100%)" offset="0.328125"/><stop stop-opacity="1" stop-color="rgb(28.993225%, 52.818298%, 100%)" offset="0.335938"/><stop stop-opacity="1" stop-color="rgb(28.858948%, 53.173828%, 100%)" offset="0.34375"/><stop stop-opacity="1" stop-color="rgb(28.72467%, 53.530884%, 100%)" offset="0.351562"/><stop stop-opacity="1" stop-color="rgb(28.590393%, 53.887939%, 100%)" offset="0.359375"/><stop stop-opacity="1" stop-color="rgb(28.456116%, 54.243469%, 100%)" offset="0.367188"/><stop stop-opacity="1" stop-color="rgb(28.321838%, 54.600525%, 100%)" offset="0.375"/><stop stop-opacity="1" stop-color="rgb(28.187561%, 54.957581%, 100%)" offset="0.382812"/><stop stop-opacity="1" stop-color="rgb(28.053284%, 55.31311%, 100%)" offset="0.390625"/><stop stop-opacity="1" stop-color="rgb(27.919006%, 55.670166%, 100%)" offset="0.398437"/><stop stop-opacity="1" stop-color="rgb(27.784729%, 56.027222%, 100%)" offset="0.40625"/><stop stop-opacity="1" stop-color="rgb(27.650452%, 56.382751%, 100%)" offset="0.414062"/><stop stop-opacity="1" stop-color="rgb(27.516174%, 56.739807%, 100%)" offset="0.421875"/><stop stop-opacity="1" stop-color="rgb(27.381897%, 57.096863%, 100%)" offset="0.429687"/><stop stop-opacity="1" stop-color="rgb(27.24762%, 57.452393%, 100%)" offset="0.4375"/><stop stop-opacity="1" stop-color="rgb(27.114868%, 57.809448%, 100%)" offset="0.445312"/><stop stop-opacity="1" stop-color="rgb(26.980591%, 58.166504%, 100%)" offset="0.453125"/><stop stop-opacity="1" stop-color="rgb(26.846313%, 58.522034%, 100%)" offset="0.460938"/><stop stop-opacity="1" stop-color="rgb(26.712036%, 58.879089%, 100%)" offset="0.46875"/><stop stop-opacity="1" stop-color="rgb(26.577759%, 59.234619%, 100%)" offset="0.476562"/><stop stop-opacity="1" stop-color="rgb(26.443481%, 59.591675%, 100%)" offset="0.484375"/><stop stop-opacity="1" stop-color="rgb(26.309204%, 59.94873%, 100%)" offset="0.492188"/><stop stop-opacity="1" stop-color="rgb(26.174927%, 60.30426%, 100%)" offset="0.5"/><stop stop-opacity="1" stop-color="rgb(26.040649%, 60.661316%, 100%)" offset="0.507812"/><stop stop-opacity="1" stop-color="rgb(25.906372%, 61.018372%, 100%)" offset="0.515625"/><stop stop-opacity="1" stop-color="rgb(25.772095%, 61.373901%, 100%)" offset="0.523438"/><stop stop-opacity="1" stop-color="rgb(25.637817%, 61.730957%, 100%)" offset="0.53125"/><stop stop-opacity="1" stop-color="rgb(25.50354%, 62.088013%, 100%)" offset="0.539062"/><stop stop-opacity="1" stop-color="rgb(25.369263%, 62.443542%, 100%)" offset="0.546875"/><stop stop-opacity="1" stop-color="rgb(25.234985%, 62.800598%, 100%)" offset="0.554688"/><stop stop-opacity="1" stop-color="rgb(25.100708%, 63.157654%, 100%)" offset="0.5625"/><stop stop-opacity="1" stop-color="rgb(24.966431%, 63.513184%, 100%)" offset="0.570312"/><stop stop-opacity="1" stop-color="rgb(24.832153%, 63.870239%, 100%)" offset="0.578125"/><stop stop-opacity="1" stop-color="rgb(24.699402%, 64.227295%, 100%)" offset="0.585938"/><stop stop-opacity="1" stop-color="rgb(24.565125%, 64.582825%, 100%)" offset="0.59375"/><stop stop-opacity="1" stop-color="rgb(24.430847%, 64.93988%, 100%)" offset="0.601562"/><stop stop-opacity="1" stop-color="rgb(24.29657%, 65.296936%, 100%)" offset="0.609375"/><stop stop-opacity="1" stop-color="rgb(24.162292%, 65.652466%, 100%)" offset="0.617188"/><stop stop-opacity="1" stop-color="rgb(24.028015%, 66.009521%, 100%)" offset="0.625"/><stop stop-opacity="1" stop-color="rgb(23.893738%, 66.366577%, 100%)" offset="0.632812"/><stop stop-opacity="1" stop-color="rgb(23.75946%, 66.722107%, 100%)" offset="0.640625"/><stop stop-opacity="1" stop-color="rgb(23.625183%, 67.079163%, 100%)" offset="0.648438"/><stop stop-opacity="1" stop-color="rgb(23.490906%, 67.434692%, 100%)" offset="0.65625"/><stop stop-opacity="1" stop-color="rgb(23.356628%, 67.791748%, 100%)" offset="0.664062"/><stop stop-opacity="1" stop-color="rgb(23.222351%, 68.148804%, 100%)" offset="0.671875"/><stop stop-opacity="1" stop-color="rgb(23.088074%, 68.504333%, 100%)" offset="0.679688"/><stop stop-opacity="1" stop-color="rgb(22.953796%, 68.861389%, 100%)" offset="0.6875"/><stop stop-opacity="1" stop-color="rgb(22.819519%, 69.218445%, 100%)" offset="0.695312"/><stop stop-opacity="1" stop-color="rgb(22.685242%, 69.573975%, 100%)" offset="0.703125"/><stop stop-opacity="1" stop-color="rgb(22.550964%, 69.93103%, 100%)" offset="0.710938"/><stop stop-opacity="1" stop-color="rgb(22.418213%, 70.288086%, 100%)" offset="0.71875"/><stop stop-opacity="1" stop-color="rgb(22.283936%, 70.643616%, 100%)" offset="0.726562"/><stop stop-opacity="1" stop-color="rgb(22.149658%, 71.000671%, 100%)" offset="0.734375"/><stop stop-opacity="1" stop-color="rgb(22.039795%, 71.289062%, 100%)" offset="0.75"/><stop stop-opacity="1" stop-color="rgb(21.998596%, 71.398926%, 100%)" offset="0.968432"/><stop stop-opacity="1" stop-color="rgb(21.998596%, 71.398926%, 100%)" offset="1"/></linearGradient><clipPath id="c7fddcad87"><path d="M 17.167969 17.167969 L 132.667969 17.167969 L 132.667969 132.667969 L 17.167969 132.667969 Z M 17.167969 17.167969 " clip-rule="nonzero"/></clipPath></defs><rect x="-15" width="180" fill="#ffffff" y="-15" height="179.999997" fill-opacity="1"/><rect x="-15" width="180" fill="#ffffff" y="-15" height="179.999997" fill-opacity="1"/><rect x="-15" width="180" fill="#ffffff" y="-15" height="179.999997" fill-opacity="1"/><g clip-path="url(#02a5e1c36e)"><g clip-path="url(#fa65ce3047)"><path fill="url(#728dfd3c4d)" d="M -60.765625 111.363281 L 38.613281 -60.765625 L 210.742188 38.613281 L 111.363281 210.742188 Z M -60.765625 111.363281 " fill-rule="nonzero"/></g></g><g clip-path="url(#c7fddcad87)"><path fill="#ffffff" d="M 74.917969 17.167969 C 73.027344 17.167969 71.140625 17.261719 69.257812 17.445312 C 67.375 17.632812 65.507812 17.910156 63.652344 18.277344 C 61.796875 18.648438 59.964844 19.105469 58.15625 19.65625 C 56.34375 20.203125 54.566406 20.839844 52.820312 21.566406 C 51.070312 22.289062 49.363281 23.097656 47.695312 23.988281 C 46.027344 24.878906 44.40625 25.851562 42.835938 26.902344 C 41.261719 27.953125 39.746094 29.078125 38.28125 30.277344 C 36.820312 31.476562 35.421875 32.746094 34.082031 34.082031 C 32.746094 35.421875 31.476562 36.820312 30.277344 38.28125 C 29.078125 39.746094 27.953125 41.261719 26.902344 42.835938 C 25.851562 44.40625 24.878906 46.027344 23.988281 47.695312 C 23.097656 49.363281 22.289062 51.070312 21.566406 52.820312 C 20.839844 54.566406 20.203125 56.34375 19.65625 58.15625 C 19.105469 59.964844 18.648438 61.796875 18.277344 63.652344 C 17.910156 65.507812 17.632812 67.375 17.445312 69.257812 C 17.261719 71.140625 17.167969 73.027344 17.167969 74.917969 C 17.167969 76.808594 17.261719 78.695312 17.445312 80.578125 C 17.632812 82.460938 17.910156 84.332031 18.277344 86.183594 C 18.648438 88.039062 19.105469 89.871094 19.65625 91.683594 C 20.203125 93.492188 20.839844 95.273438 21.566406 97.019531 C 22.289062 98.765625 23.097656 100.472656 23.988281 102.140625 C 24.878906 103.808594 25.851562 105.429688 26.902344 107.003906 C 27.953125 108.574219 29.078125 110.09375 30.277344 111.554688 C 31.476562 113.015625 32.746094 114.417969 34.082031 115.753906 C 35.421875 117.09375 36.820312 118.359375 38.28125 119.558594 C 39.746094 120.761719 41.261719 121.886719 42.835938 122.9375 C 44.40625 123.988281 46.027344 124.957031 47.695312 125.851562 C 49.363281 126.742188 51.070312 127.550781 52.820312 128.273438 C 54.566406 128.996094 56.34375 129.632812 58.15625 130.183594 C 59.964844 130.730469 61.796875 131.191406 63.652344 131.558594 C 65.507812 131.929688 67.375 132.207031 69.257812 132.390625 C 71.140625 132.578125 73.027344 132.667969 74.917969 132.667969 C 76.808594 132.667969 78.695312 132.578125 80.578125 132.390625 C 82.460938 132.207031 84.332031 131.929688 86.183594 131.558594 C 88.039062 131.191406 89.871094 130.730469 91.683594 130.183594 C 93.492188 129.632812 95.273438 128.996094 97.019531 128.273438 C 98.765625 127.550781 100.472656 126.742188 102.140625 125.851562 C 103.808594 124.957031 105.429688 123.988281 107.003906 122.9375 C 108.574219 121.886719 110.09375 120.761719 111.554688 119.558594 C 113.015625 118.359375 114.417969 117.09375 115.753906 115.753906 C 117.09375 114.417969 118.359375 113.015625 119.558594 111.554688 C 120.761719 110.09375 121.886719 108.574219 122.9375 107.003906 C 123.988281 105.429688 124.957031 103.808594 125.851562 102.140625 C 126.742188 100.472656 127.550781 98.765625 128.273438 97.019531 C 128.996094 95.273438 129.632812 93.492188 130.183594 91.683594 C 130.730469 89.871094 131.191406 88.039062 131.558594 86.183594 C 131.929688 84.332031 132.207031 82.460938 132.390625 80.578125 C 132.578125 78.695312 132.667969 76.808594 132.667969 74.917969 C 132.667969 73.027344 132.578125 71.140625 132.390625 69.257812 C 132.207031 67.375 131.929688 65.507812 131.558594 63.652344 C 131.191406 61.796875 130.730469 59.964844 130.183594 58.15625 C 129.632812 56.34375 128.996094 54.566406 128.273438 52.820312 C 127.550781 51.070312 126.742188 49.363281 125.851562 47.695312 C 124.957031 46.027344 123.988281 44.40625 122.9375 42.835938 C 121.886719 41.261719 120.761719 39.746094 119.558594 38.28125 C 118.359375 36.820312 117.09375 35.421875 115.753906 34.082031 C 114.417969 32.746094 113.015625 31.476562 111.554688 30.277344 C 110.09375 29.078125 108.574219 27.953125 107.003906 26.902344 C 105.429688 25.851562 103.808594 24.878906 102.140625 23.988281 C 100.472656 23.097656 98.765625 22.289062 97.019531 21.566406 C 95.273438 20.839844 93.492188 20.203125 91.683594 19.65625 C 89.871094 19.105469 88.039062 18.648438 86.183594 18.277344 C 84.332031 17.910156 82.460938 17.632812 80.578125 17.445312 C 78.695312 17.261719 76.808594 17.167969 74.917969 17.167969 Z M 83.167969 95.070312 C 82.914062 95.105469 82.65625 95.117188 82.402344 95.097656 C 82.144531 95.078125 81.890625 95.035156 81.644531 94.960938 C 81.394531 94.890625 81.160156 94.792969 80.933594 94.671875 C 80.707031 94.546875 80.496094 94.402344 80.300781 94.234375 C 80.105469 94.066406 79.929688 93.878906 79.773438 93.671875 C 79.617188 93.46875 79.488281 93.246094 79.378906 93.015625 C 79.269531 92.78125 79.1875 92.539062 79.132812 92.285156 C 79.074219 92.035156 79.046875 91.78125 79.042969 91.523438 L 79.042969 82.035156 C 79.042969 81.632812 79.109375 81.242188 79.238281 80.863281 C 79.371094 80.484375 79.5625 80.136719 79.808594 79.824219 C 80.058594 79.507812 80.351562 79.242188 80.691406 79.027344 C 81.03125 78.8125 81.394531 78.660156 81.785156 78.570312 C 82.542969 78.398438 83.277344 78.15625 83.988281 77.847656 C 84.699219 77.535156 85.378906 77.160156 86.019531 76.726562 C 86.660156 76.289062 87.253906 75.792969 87.800781 75.246094 C 88.351562 74.695312 88.84375 74.097656 89.277344 73.457031 C 89.714844 72.816406 90.085938 72.136719 90.394531 71.425781 C 90.703125 70.714844 90.945312 69.980469 91.113281 69.222656 C 91.285156 68.464844 91.382812 67.699219 91.410156 66.921875 C 91.4375 66.148438 91.390625 65.375 91.273438 64.609375 C 91.152344 63.84375 90.964844 63.09375 90.703125 62.363281 C 90.445312 61.632812 90.121094 60.929688 89.726562 60.261719 C 89.335938 59.589844 88.886719 58.960938 88.375 58.378906 C 87.867188 57.792969 87.308594 57.257812 86.695312 56.777344 C 86.085938 56.300781 85.4375 55.878906 84.75 55.523438 C 84.0625 55.164062 83.34375 54.875 82.601562 54.652344 C 81.859375 54.425781 81.101562 54.273438 80.328125 54.195312 C 79.558594 54.113281 78.785156 54.105469 78.011719 54.171875 C 77.238281 54.234375 76.476562 54.371094 75.730469 54.578125 C 74.980469 54.789062 74.257812 55.0625 73.5625 55.40625 C 72.867188 55.75 72.210938 56.15625 71.589844 56.625 C 70.972656 57.089844 70.398438 57.613281 69.878906 58.1875 C 69.355469 58.761719 68.894531 59.378906 68.488281 60.042969 C 68.082031 60.703125 67.742188 61.398438 67.46875 62.125 C 67.195312 62.847656 66.988281 63.59375 66.855469 64.359375 C 66.71875 65.121094 66.660156 65.894531 66.667969 66.667969 L 66.667969 105.855469 C 66.667969 106.261719 66.628906 106.664062 66.550781 107.0625 C 66.472656 107.460938 66.351562 107.847656 66.199219 108.222656 C 66.042969 108.601562 65.851562 108.957031 65.625 109.292969 C 65.402344 109.632812 65.144531 109.945312 64.855469 110.230469 C 64.570312 110.519531 64.257812 110.777344 63.917969 111 C 63.582031 111.226562 63.226562 111.417969 62.847656 111.574219 C 62.472656 111.726562 62.085938 111.847656 61.6875 111.925781 C 61.289062 112.003906 60.886719 112.042969 60.480469 112.042969 L 56.355469 112.042969 C 55.949219 112.042969 55.546875 112.003906 55.148438 111.925781 C 54.75 111.847656 54.363281 111.726562 53.988281 111.574219 C 53.613281 111.417969 53.257812 111.226562 52.917969 111 C 52.582031 110.777344 52.269531 110.519531 51.980469 110.230469 C 51.695312 109.945312 51.4375 109.632812 51.210938 109.292969 C 50.984375 108.957031 50.796875 108.601562 50.640625 108.222656 C 50.484375 107.847656 50.367188 107.460938 50.289062 107.0625 C 50.207031 106.664062 50.167969 106.261719 50.167969 105.855469 L 50.167969 67.410156 C 50.160156 66.484375 50.191406 65.558594 50.269531 64.632812 C 50.347656 63.707031 50.46875 62.789062 50.632812 61.875 C 50.796875 60.960938 51.003906 60.058594 51.253906 59.164062 C 51.503906 58.269531 51.796875 57.390625 52.132812 56.523438 C 52.464844 55.660156 52.839844 54.808594 53.253906 53.980469 C 53.667969 53.148438 54.121094 52.339844 54.609375 51.554688 C 55.101562 50.765625 55.628906 50.003906 56.191406 49.265625 C 56.757812 48.527344 57.351562 47.820312 57.984375 47.136719 C 58.613281 46.457031 59.277344 45.808594 59.96875 45.1875 C 60.660156 44.570312 61.378906 43.988281 62.128906 43.4375 C 62.875 42.886719 63.648438 42.375 64.445312 41.898438 C 65.242188 41.421875 66.058594 40.984375 66.894531 40.582031 C 67.734375 40.183594 68.589844 39.824219 69.460938 39.507812 C 70.332031 39.191406 71.21875 38.914062 72.117188 38.679688 C 73.011719 38.445312 73.921875 38.253906 74.835938 38.105469 C 75.753906 37.957031 76.675781 37.855469 77.601562 37.792969 C 78.496094 37.78125 79.386719 37.8125 80.28125 37.882812 C 81.171875 37.957031 82.058594 38.070312 82.941406 38.222656 C 83.824219 38.378906 84.695312 38.570312 85.558594 38.808594 C 86.421875 39.042969 87.273438 39.316406 88.109375 39.632812 C 88.949219 39.945312 89.769531 40.296875 90.574219 40.6875 C 91.378906 41.078125 92.167969 41.507812 92.929688 41.96875 C 93.695312 42.433594 94.4375 42.933594 95.160156 43.464844 C 95.878906 44 96.570312 44.5625 97.238281 45.160156 C 97.902344 45.757812 98.539062 46.382812 99.148438 47.039062 C 99.757812 47.695312 100.335938 48.378906 100.878906 49.089844 C 101.421875 49.800781 101.933594 50.535156 102.410156 51.292969 C 102.886719 52.050781 103.328125 52.828125 103.730469 53.625 C 104.136719 54.425781 104.503906 55.238281 104.832031 56.074219 C 105.160156 56.90625 105.449219 57.75 105.699219 58.609375 C 105.949219 59.46875 106.15625 60.339844 106.324219 61.21875 C 106.496094 62.097656 106.621094 62.980469 106.707031 63.871094 C 106.796875 64.761719 106.839844 65.65625 106.84375 66.550781 C 106.847656 67.445312 106.808594 68.339844 106.730469 69.230469 C 106.652344 70.121094 106.53125 71.007812 106.367188 71.886719 C 106.207031 72.769531 106.003906 73.640625 105.761719 74.5 C 105.519531 75.363281 105.238281 76.210938 104.914062 77.046875 C 104.59375 77.878906 104.234375 78.699219 103.835938 79.5 C 103.4375 80.300781 103.003906 81.082031 102.53125 81.84375 C 102.0625 82.605469 101.558594 83.34375 101.019531 84.058594 C 100.480469 84.773438 99.910156 85.460938 99.304688 86.121094 C 98.703125 86.785156 98.070312 87.414062 97.410156 88.019531 C 96.746094 88.621094 96.058594 89.191406 95.34375 89.730469 C 94.628906 90.269531 93.890625 90.773438 93.128906 91.242188 C 92.367188 91.710938 91.585938 92.144531 90.785156 92.542969 C 89.980469 92.941406 89.164062 93.300781 88.328125 93.621094 C 87.492188 93.941406 86.644531 94.222656 85.78125 94.464844 C 84.921875 94.707031 84.050781 94.910156 83.167969 95.070312 Z M 83.167969 95.070312 " fill-opacity="1" fill-rule="nonzero"/></g></svg>