<svg xmlns="http://www.w3.org/2000/svg" xmlns:xlink="http://www.w3.org/1999/xlink" width="400" zoomAndPan="magnify" viewBox="0 0 300 112.499997" height="150" preserveAspectRatio="xMidYMid meet" version="1.0"><defs><g/><clipPath id="86f3692301"><path d="M 0.664062 0 L 299.335938 0 L 299.335938 112.003906 L 0.664062 112.003906 Z M 0.664062 0 " clip-rule="nonzero"/></clipPath></defs><g clip-path="url(#86f3692301)"><path fill="#ffffff" d="M 0.664062 0 L 299.335938 0 L 299.335938 119.46875 L 0.664062 119.46875 Z M 0.664062 0 " fill-opacity="1" fill-rule="nonzero"/><path fill="#ffffff" d="M 0.664062 0 L 299.335938 0 L 299.335938 112.003906 L 0.664062 112.003906 Z M 0.664062 0 " fill-opacity="1" fill-rule="nonzero"/><path fill="#ffffff" d="M 0.664062 0 L 299.335938 0 L 299.335938 112.003906 L 0.664062 112.003906 Z M 0.664062 0 " fill-opacity="1" fill-rule="nonzero"/></g><g fill="#38b6ff" fill-opacity="1"><g transform="translate(5.949664, 90.476329)"><g><path d="M 38.644531 -77.507812 L 8.859375 -77.507812 L 8.859375 0 L 25.578125 0 L 25.578125 -24.136719 L 38.644531 -24.136719 C 54.253906 -24.136719 65.992188 -35.542969 65.992188 -50.824219 C 65.992188 -66.101562 54.144531 -77.507812 38.644531 -77.507812 Z M 37.867188 -39.640625 L 25.578125 -39.640625 L 25.578125 -61.894531 L 37.867188 -61.894531 C 44.511719 -61.894531 49.050781 -57.246094 49.050781 -50.824219 C 49.050781 -44.402344 44.511719 -39.640625 37.867188 -39.640625 Z M 37.867188 -39.640625 "/></g></g></g><g fill="#38b6ff" fill-opacity="1"><g transform="translate(72.27227, 90.476329)"><g><path d="M 34.988281 1.773438 C 51.929688 1.773438 63.113281 -9.078125 63.113281 -25.246094 L 63.113281 -59.792969 L 46.949219 -59.792969 L 46.949219 -27.015625 C 46.949219 -18.601562 42.519531 -13.507812 34.988281 -13.507812 C 27.570312 -13.507812 23.03125 -18.492188 23.03125 -27.015625 L 23.03125 -59.792969 L 6.863281 -59.792969 L 6.863281 -25.246094 C 6.863281 -9.078125 18.160156 1.773438 34.988281 1.773438 Z M 34.988281 1.773438 "/></g></g></g><g fill="#38b6ff" fill-opacity="1"><g transform="translate(139.812836, 90.476329)"><g><path d="M 7.75 0 L 23.917969 0 L 23.917969 -81.273438 L 7.75 -81.273438 Z M 7.75 0 "/></g></g></g><g fill="#38b6ff" fill-opacity="1"><g transform="translate(168.932704, 90.476329)"><g><path d="M 28.898438 1.773438 C 44.070312 1.773438 54.035156 -6.199219 54.035156 -18.378906 C 54.035156 -32.996094 41.523438 -34.988281 31.777344 -36.761719 C 25.578125 -37.867188 20.484375 -38.863281 20.484375 -42.851562 C 20.484375 -46.285156 23.472656 -48.496094 28.457031 -48.496094 C 34.101562 -48.496094 37.425781 -46.171875 37.535156 -41.410156 L 52.925781 -41.410156 C 52.816406 -53.371094 43.292969 -61.453125 28.898438 -61.453125 C 14.503906 -61.453125 4.871094 -53.589844 4.871094 -42.296875 C 4.871094 -28.234375 17.050781 -25.6875 26.574219 -24.027344 C 32.886719 -23.03125 38.089844 -21.8125 38.089844 -17.714844 C 38.089844 -13.730469 33.992188 -11.625 29.5625 -11.625 C 23.804688 -11.625 19.710938 -14.285156 19.597656 -19.597656 L 3.875 -19.597656 C 3.875 -6.863281 13.953125 1.773438 28.898438 1.773438 Z M 28.898438 1.773438 "/></g></g></g><g fill="#38b6ff" fill-opacity="1"><g transform="translate(224.515251, 90.476329)"><g><path d="M 65.769531 -30.007812 C 65.769531 -47.28125 53.148438 -61.453125 34.769531 -61.453125 C 17.050781 -61.453125 3.765625 -47.832031 3.765625 -29.894531 C 3.765625 -11.957031 17.164062 1.773438 34.769531 1.773438 C 48.71875 1.773438 60.125 -6.53125 64.441406 -19.597656 L 47.5 -19.597656 C 45.066406 -15.28125 40.414062 -12.621094 34.769531 -12.621094 C 26.90625 -12.621094 21.589844 -17.164062 20.152344 -25.355469 L 65.4375 -25.355469 C 65.660156 -26.90625 65.769531 -28.457031 65.769531 -30.007812 Z M 34.769531 -47.613281 C 42.074219 -47.613281 47.28125 -43.625 49.605469 -36.316406 L 20.59375 -36.316406 C 22.476562 -43.40625 27.570312 -47.613281 34.769531 -47.613281 Z M 34.769531 -47.613281 "/></g></g></g></svg>